HIERARCHY
ROOT Hips
{
  OFFSET 0 0 0
  CHANNELS 6 Xposition Yposition Zposition Zrotation Yrotation Xrotation
  JOINT LeftThigh
  {
    OFFSET 8.409438 0 -5.917753
    CHANNELS 3 Zrotation Yrotation Xrotation
    JOINT LeftLeg
    {
      OFFSET 0 0 -42.358652
      CHANNELS 3 Zrotation Yrotation Xrotation
      JOINT LeftFoot
      {
        OFFSET 0 0 -39.357303
        CHANNELS 3 Zrotation Yrotation Xrotation
      }
    }
  }
  JOINT RightThigh
  {
    OFFSET -8.409438 0 -5.917753
    CHANNELS 3 Zrotation Yrotation Xrotation
    JOINT RightLeg
    {
      OFFSET 0 0 -42.358652
      CHANNELS 3 Zrotation Yrotation Xrotation
      JOINT RightFoot
      {
        OFFSET 0 0 -39.357303
        CHANNELS 3 Zrotation Yrotation Xrotation
      }
    }
  }
  JOINT SpineLow
  {
    OFFSET 0 0 4.719101
    CHANNELS 3 Zrotation Yrotation Xrotation
    JOINT SpineMid
    {
      OFFSET 0 0 12.899191
      CHANNELS 3 Zrotation Yrotation Xrotation
      JOINT Chest
      {
        OFFSET 0 0 12.899191
        CHANNELS 3 Zrotation Yrotation Xrotation
        JOINT LeftShoulder
        {
          OFFSET 7.550562 1.41573 9.438202
          CHANNELS 3 Zrotation Yrotation Xrotation
          JOINT LeftArm
          {
            OFFSET 9.155056 0 4.247191
            CHANNELS 3 Zrotation Yrotation Xrotation
            JOINT LeftForearm
            {
              OFFSET 0 0 25.771955
              CHANNELS 3 Zrotation Yrotation Xrotation
              JOINT LeftHand
              {
                OFFSET 0 0 25.197169
                CHANNELS 3 Zrotation Yrotation Xrotation
              }
            }
          }
        }
        JOINT RightShoulder
        {
          OFFSET -7.550562 1.41573 9.438202
          CHANNELS 3 Zrotation Yrotation Xrotation
          JOINT RightArm
          {
            OFFSET -9.155056 0 4.247191
            CHANNELS 3 Zrotation Yrotation Xrotation
            JOINT RightForearm
            {
              OFFSET 0 0 -25.771955
              CHANNELS 3 Zrotation Yrotation Xrotation
              JOINT RightHand
              {
                OFFSET 0 0 -25.197169
                CHANNELS 3 Zrotation Yrotation Xrotation
              }
            }
          }
        }
        JOINT Neck
        {
          OFFSET 0 0 15.101124
          CHANNELS 3 Zrotation Yrotation Xrotation
          JOINT Head
          {
            OFFSET 0 0 11.325843
            CHANNELS 3 Zrotation Yrotation Xrotation
            End Site
            {
              OFFSET 0 0 14.157303
            }
          }
        }
      }
    }
  }
}
MOTION
Frames: 16
Frame Time: 0.0
0.0  93.25843  0.0  0.205772  -14.518781  -86.403045  3.675347  -12.351775  -10.929684  5.006351  -3.385308  20.863618  9.56268  2.257627  5.427301  -11.262932  -2.26234  -20.123508  -10.265982  13.336817  14.19372  5.603937  2.443567  0.809409  3.998855  0.864723  -0.764836  10.906561  2.482215  -1.942115  10.90656  2.482215  -1.942115  -34.86797  13.403344  4.402401  173.719246  38.823248  -129.13281  -4.118067  -19.1233  81.631793  99.233525  18.081082  -4.394395  -1.312167  -21.08961  30.213172  85.194443  55.075847  37.287391  1.704534  -21.351621  -71.366621  75.934492  -12.221768  1.367789  -11.97454  3.827927  18.394176  -9.102729  2.514263  13.87186  
0.0  93.25843  0.0  0.021993  -20.731638  -86.416296  5.118856  -12.545739  -9.375137  7.883001  -3.619308  19.934667  10.247262  2.307931  5.524275  -8.776887  -2.736002  -20.730561  -8.542903  12.635261  13.936611  5.71167  2.146306  0.881326  4.173626  0.946654  -0.866519  11.378498  2.727656  -2.198482  11.378498  2.727656  -2.198483  -33.00512  12.602864  5.236372  176.816669  36.072775  -128.574454  0.256172  -24.454373  79.823797  99.077139  19.231533  -4.615031  -1.750806  -20.371814  30.087594  87.75621  53.567638  38.36905  4.364471  -27.16466  -76.183375  72.883039  -14.398776  1.14953  -9.320665  3.805949  18.258398  -7.109337  2.579382  13.750614  
0.0  93.25843  0.0  -0.179583  -27.353238  -86.523445  6.96135  -12.733238  -7.736877  10.87923  -3.767248  19.05476  11.028932  2.289852  5.694416  -5.981363  -3.231667  -21.073891  -6.924976  11.987516  13.509961  5.950294  1.880458  0.965183  4.351421  1.011416  -0.988413  11.85766  2.931337  -2.511525  11.85766  2.931337  -2.511525  -31.237348  11.896055  6.174892  179.783532  33.389626  -128.941097  3.073447  -28.617357  78.414675  98.471015  20.454901  -7.269008  -2.19232  -19.614783  29.976995  90.776562  51.705133  39.901946  7.689345  -31.902301  -81.619238  70.439244  -16.100871  0.516282  -6.405033  3.764032  18.13534  -4.919063  2.636031  13.637832  
0.0  93.25843  0.0  -0.447567  -34.00365  -86.632555  8.815456  -13.027705  -6.127613  14.150021  -3.830391  18.351894  11.728842  2.25674  5.831154  -3.230852  -3.892136  -21.170738  -5.423837  11.433621  12.810782  5.998782  1.576193  1.041404  4.490915  1.05646  -1.115154  12.231848  3.082292  -2.842155  12.231849  3.082292  -2.842155  -29.658833  11.209587  7.222162  -177.620172  31.265698  -129.985236  3.440406  -30.444788  77.450343  97.800514  21.495688  -12.906557  -2.682421  -18.98133  29.780635  93.989871  49.629099  41.890333  11.887141  -35.109232  -87.868862  68.891409  -17.78996  0.321249  -3.371205  3.662298  17.945764  -2.63796  2.65053  13.475415  
0.0  93.25843  0.0  -0.717777  -40.389331  -86.823321  11.063384  -13.220448  -4.259429  17.095524  -3.86186  17.510325  11.854238  2.069332  5.652647  -0.635436  -4.523174  -20.870693  -4.248258  10.945741  11.831811  6.219251  1.412981  1.144973  4.545265  1.083678  -1.201094  12.375368  3.174593  -3.068615  12.375368  3.174593  -3.068616  -28.307636  10.889441  8.429795  -174.888132  29.730676  -130.951796  1.979386  -29.885438  76.332399  96.495047  21.349441  -21.127986  -2.962796  -18.472237  29.482399  96.778416  47.771109  44.103153  16.609404  -36.267781  -94.360542  68.216766  -18.75695  0.227571  -0.205146  3.534583  17.618277  -0.256123  2.647632  13.210694  
0.0  93.25843  0.0  -0.96889  -45.975175  -87.116768  12.600026  -13.29922  -2.51246  19.931478  -4.034917  17.050687  11.927058  2.134314  5.715086  1.564123  -4.997094  -20.261923  -3.504064  10.553436  10.803682  6.756363  1.235801  1.195061  4.494871  1.117227  -1.280026  12.23234  3.278221  -3.280115  12.23234  3.278221  -3.280116  -27.610008  10.543297  9.38851  -172.01494  28.468254  -132.418683  -1.363336  -27.216826  75.216697  94.92279  19.495852  -28.63041  -3.186615  -18.423006  29.379623  98.742383  46.332806  46.538935  20.985619  -35.517903  -100.543951  68.040749  -19.312396  -0.106611  2.868643  3.300642  17.33712  2.059087  2.559373  12.984091  
0.0  93.25843  0.0  -1.112142  -50.431501  -87.403224  13.444433  -12.96903  -1.056029  21.83385  -4.431349  16.810535  10.495625  1.905387  4.737352  2.962592  -5.254098  -19.678035  -2.66168  10.131191  10.064512  7.424425  1.095221  1.230293  4.311542  1.145574  -1.373616  11.724957  3.363232  -3.539804  11.724957  3.363232  -3.539804  -27.270505  10.404109  10.578382  -168.981869  27.512396  -133.647801  -6.136603  -23.597039  73.770522  93.64262  16.96085  -31.399176  -3.344915  -18.486484  29.640384  99.705421  45.419201  49.016056  24.698705  -33.632591  -106.259242  67.875684  -19.665155  -0.877311  5.783932  3.112103  17.155665  4.253398  2.499057  12.835513  
0.0  93.25843  0.0  -1.051183  -53.613396  -87.576602  13.302682  -12.367612  -0.461951  22.583375  -4.760605  17.143094  10.899061  2.007777  4.694026  3.471518  -5.395743  -19.167562  -1.440969  9.620364  9.46147  7.839203  0.962041  1.172904  3.909905  1.19376  -1.430739  10.621372  3.482972  -3.709388  10.621373  3.482972  -3.709388  -27.147985  10.365467  11.34564  -165.705587  27.10357  -134.705553  -10.873181  -20.167341  71.239084  92.984802  15.044931  -28.860829  -3.031194  -18.403962  29.656653  99.656852  44.793813  51.120339  27.607674  -31.12443  -111.353869  67.274329  -19.907075  -2.30818  8.723214  3.067257  16.81632  6.462187  2.543403  12.568518  
0.0  93.25843  0.0  -0.914123  -55.84595  -87.721423  12.715681  -12.103185  -0.626698  22.559395  -4.749204  17.881304  11.909873  2.113044  4.901264  4.182875  -5.3018  -18.547683  -0.853529  8.915966  8.552707  7.78539  0.836118  0.979138  3.407708  1.227329  -1.50951  9.241986  3.558194  -3.947335  9.241986  3.558194  -3.947335  -27.294568  10.901374  12.201883  -162.249357  27.526769  -135.496796  -13.752893  -18.24305  66.957937  91.558909  13.929062  -23.651888  -2.553395  -18.076642  29.788309  97.953117  44.383981  52.184902  30.216737  -28.623332  -115.706609  66.36616  -19.884894  -4.391839  11.481319  3.08426  16.654545  8.532349  2.629553  12.435206  
0.0  93.25843  0.0  -0.904338  -57.137914  -87.748116  12.324192  -12.334156  -1.169339  22.166067  -4.383059  18.726927  12.968535  2.152599  5.296218  5.106881  -5.004459  -17.822205  -1.220877  7.987654  7.211013  7.492462  0.859338  0.957592  2.874103  1.233196  -1.642728  7.77498  3.558735  -4.340255  7.774981  3.558735  -4.340255  -27.837484  11.603239  13.106408  -159.017651  28.622376  -136.292633  -14.22477  -17.274666  60.801004  89.675924  13.482775  -17.630446  -2.328819  -17.718807  30.343783  94.494181  44.199094  52.256641  32.98778  -26.359016  -119.328063  65.34373  -19.370421  -6.662899  13.745157  3.022401  16.837433  10.232441  2.649572  12.564783  
0.0  93.25843  0.0  -1.130494  -57.293002  -87.484034  12.396266  -12.8593  -1.798719  21.639555  -3.913909  19.469145  13.519061  2.10479  5.556311  5.542535  -4.869228  -17.126326  -2.077153  7.33494  6.010533  7.549973  1.113027  1.09459  2.199653  1.240113  -1.755146  5.924057  3.544104  -4.684251  5.924056  3.544104  -4.684251  -28.431448  12.1447  13.405449  -156.653559  30.649651  -137.089894  -12.75423  -15.474326  52.584014  88.434996  13.313278  -12.138863  -1.911247  -17.410516  30.82328  89.634508  44.259071  51.435903  35.885122  -24.245641  -122.206251  64.646651  -18.318226  -8.58502  15.975251  2.944863  16.936999  11.908116  2.656126  12.633312  
0.0  93.25843  0.0  -1.533417  -56.961825  -87.056922  13.418101  -13.560655  -2.356972  21.103499  -3.569431  20.106214  13.337069  2.081788  5.543733  5.929244  -5.050226  -16.519317  -3.022176  7.381287  5.230364  7.747507  1.267586  1.076044  1.517722  1.230573  -1.843868  4.055346  3.475632  -4.964685  4.055346  3.475632  -4.964685  -29.144801  12.702606  13.743068  -155.988789  33.550718  -137.558758  -10.848554  -12.389833  42.66329  88.367343  12.153577  -7.416693  -1.79835  -16.935362  31.317154  84.133822  44.209074  50.137784  38.671963  -21.99499  -124.534355  64.652556  -17.741728  -9.6368  18.031975  2.976436  16.968345  13.450741  2.738556  12.648758  
0.0  93.25843  0.0  -1.87706  -56.361512  -86.757731  14.964597  -14.261934  -2.818882  20.656612  -3.428895  20.601025  12.734359  2.199351  5.495613  6.404882  -5.212099  -16.195754  -3.49708  7.69229  5.026136  7.695585  1.065969  1.132755  0.912698  1.21262  -1.899472  2.399659  3.383398  -5.14951  2.399659  3.383398  -5.149511  -30.161479  13.53032  14.077394  -157.833288  37.648332  -138.237842  -9.014749  -7.47627  31.182602  88.89321  8.997525  -3.891738  -1.857045  -16.051006  31.964857  78.259547  43.839478  48.300306  40.214428  -19.361615  -126.042302  65.026042  -17.439034  -10.75444  19.770986  3.063347  16.972253  14.753334  2.853029  12.642886  
0.0  93.25843  0.0  -2.352015  -55.275183  -86.587103  16.350604  -14.974476  -3.016495  20.024132  -3.396771  20.723293  11.989956  2.21621  5.424663  6.45122  -5.321396  -16.241501  -3.671851  7.728185  5.527288  7.505716  1.032973  1.185632  0.316467  1.189077  -1.857526  0.773674  3.272272  -5.065504  0.773674  3.272272  -5.065503  -30.736241  14.850817  13.188719  -165.443322  43.396012  -142.34363  -9.007802  -1.36515  18.941641  90.746547  3.834454  0.841555  -1.806566  -14.651385  32.356666  72.311501  42.653962  45.77071  39.786731  -16.777115  -126.082545  66.120237  -16.496399  -13.777749  21.14128  3.088143  16.800074  15.781631  2.904353  12.508073  
0.0  93.25843  0.0  -2.771106  -53.72554  -86.880762  17.292254  -15.593261  -2.754137  19.016472  -3.420768  20.5188  11.478454  2.173179  5.408586  5.304471  -5.45928  -16.11416  -3.258488  7.613331  6.413455  7.28889  1.087153  1.24966  -0.276977  1.204143  -1.702876  -0.842103  3.269963  -4.671886  -0.842103  3.269963  -4.671886  -31.608889  17.201665  11.394045  -179.414497  47.844436  -151.669619  -7.85262  1.704356  9.573712  93.246001  0.225623  8.910268  -1.366956  -13.291586  31.978628  67.23675  40.059796  43.905848  37.856012  -14.738286  -125.139972  67.00032  -14.302454  -18.217205  21.925841  2.841982  16.353567  16.379157  2.725089  12.179443  
0.0  93.25843  0.0  -3.029608  -51.966045  -87.399227  17.539354  -16.165373  -2.379601  18.086573  -3.41794  20.302747  11.325283  2.086337  5.431307  3.553809  -5.439139  -15.743918  -2.935643  7.432203  7.202306  7.167618  1.157808  1.318909  -0.815109  1.261914  -1.571286  -2.310837  3.394196  -4.340476  -2.310837  3.394196  -4.340476  -31.5874  19.322946  8.709035  170.810344  38.579017  -156.225233  3.497814  0.181575  0.264335  90.15786  1.88137  8.001899  -0.386495  -12.73615  31.680029  62.620635  36.780627  43.255664  35.421635  -13.145439  -123.802489  66.381332  -11.147223  -21.882874  22.164751  2.376411  15.800226  16.573162  2.361369  11.780819  
